<mxfile host="Electron" modified="2023-10-30T17:15:27.068Z" agent="Mozilla/5.0 (Windows NT 10.0; Win64; x64) AppleWebKit/537.36 (KHTML, like Gecko) draw.io/22.0.3 Chrome/114.0.5735.289 Electron/25.8.4 Safari/537.36" etag="ChU_QLuGmmmbnc-4VCnA" version="22.0.3" type="device">
  <diagram name="Page-1" id="-J_V2CZQaVJCTGSH46BH">
    <mxGraphModel dx="1434" dy="844" grid="1" gridSize="10" guides="1" tooltips="1" connect="1" arrows="1" fold="1" page="1" pageScale="1" pageWidth="850" pageHeight="1100" math="0" shadow="0">
      <root>
        <mxCell id="0" />
        <mxCell id="1" parent="0" />
        <mxCell id="Re2_OZswaFn7zmYQNnyf-1" value="«Component»&lt;br&gt;&lt;b&gt;UI&lt;/b&gt;" style="html=1;dropTarget=0;whiteSpace=wrap;" parent="1" vertex="1">
          <mxGeometry x="15" y="270" width="180" height="90" as="geometry" />
        </mxCell>
        <mxCell id="Re2_OZswaFn7zmYQNnyf-2" value="" style="shape=module;jettyWidth=8;jettyHeight=4;" parent="Re2_OZswaFn7zmYQNnyf-1" vertex="1">
          <mxGeometry x="1" width="20" height="20" relative="1" as="geometry">
            <mxPoint x="-27" y="7" as="offset" />
          </mxGeometry>
        </mxCell>
        <mxCell id="Re2_OZswaFn7zmYQNnyf-7" value="&lt;p style=&quot;margin:0px;margin-top:6px;text-align:center;&quot;&gt;&lt;b&gt;&amp;lt;&amp;lt;subsystem&amp;gt;&amp;gt; BackEnd&lt;/b&gt;&lt;/p&gt;&lt;hr&gt;&lt;p style=&quot;margin:0px;margin-left:8px;&quot;&gt;&lt;br&gt;&lt;br&gt;&lt;/p&gt;" style="align=left;overflow=fill;html=1;dropTarget=0;whiteSpace=wrap;" parent="1" vertex="1">
          <mxGeometry x="290" y="50" width="510" height="590" as="geometry" />
        </mxCell>
        <mxCell id="Re2_OZswaFn7zmYQNnyf-8" value="" style="shape=component;jettyWidth=8;jettyHeight=4;" parent="Re2_OZswaFn7zmYQNnyf-7" vertex="1">
          <mxGeometry x="1" width="20" height="20" relative="1" as="geometry">
            <mxPoint x="-24" y="4" as="offset" />
          </mxGeometry>
        </mxCell>
        <mxCell id="Re2_OZswaFn7zmYQNnyf-9" value="&amp;lt;&amp;lt;Component&amp;gt;&amp;gt;&lt;br&gt;Controller" style="html=1;dropTarget=0;whiteSpace=wrap;" parent="1" vertex="1">
          <mxGeometry x="320" y="270" width="180" height="90" as="geometry" />
        </mxCell>
        <mxCell id="Re2_OZswaFn7zmYQNnyf-10" value="" style="shape=module;jettyWidth=8;jettyHeight=4;" parent="Re2_OZswaFn7zmYQNnyf-9" vertex="1">
          <mxGeometry x="1" width="20" height="20" relative="1" as="geometry">
            <mxPoint x="-27" y="7" as="offset" />
          </mxGeometry>
        </mxCell>
        <mxCell id="Re2_OZswaFn7zmYQNnyf-11" value="&amp;lt;&amp;lt;Componenet&amp;gt;&amp;gt;&lt;br&gt;Authentication/Authorization" style="html=1;dropTarget=0;whiteSpace=wrap;" parent="1" vertex="1">
          <mxGeometry x="324" y="130" width="180" height="90" as="geometry" />
        </mxCell>
        <mxCell id="Re2_OZswaFn7zmYQNnyf-12" value="" style="shape=module;jettyWidth=8;jettyHeight=4;" parent="Re2_OZswaFn7zmYQNnyf-11" vertex="1">
          <mxGeometry x="1" width="20" height="20" relative="1" as="geometry">
            <mxPoint x="-27" y="7" as="offset" />
          </mxGeometry>
        </mxCell>
        <mxCell id="Re2_OZswaFn7zmYQNnyf-13" value="«Componenet»&lt;br&gt;&lt;b&gt;Manage Cart&lt;/b&gt;" style="html=1;dropTarget=0;whiteSpace=wrap;" parent="1" vertex="1">
          <mxGeometry x="322" y="410" width="180" height="90" as="geometry" />
        </mxCell>
        <mxCell id="Re2_OZswaFn7zmYQNnyf-14" value="" style="shape=module;jettyWidth=8;jettyHeight=4;" parent="Re2_OZswaFn7zmYQNnyf-13" vertex="1">
          <mxGeometry x="1" width="20" height="20" relative="1" as="geometry">
            <mxPoint x="-27" y="7" as="offset" />
          </mxGeometry>
        </mxCell>
        <mxCell id="Re2_OZswaFn7zmYQNnyf-18" value="" style="html=1;rounded=0;" parent="1" vertex="1">
          <mxGeometry x="270" y="300" width="30" height="30" as="geometry" />
        </mxCell>
        <mxCell id="Re2_OZswaFn7zmYQNnyf-19" value="" style="endArrow=none;html=1;rounded=0;align=center;verticalAlign=top;endFill=0;labelBackgroundColor=none;endSize=2;" parent="1" source="Re2_OZswaFn7zmYQNnyf-20" edge="1">
          <mxGeometry relative="1" as="geometry">
            <mxPoint x="240" y="315" as="targetPoint" />
          </mxGeometry>
        </mxCell>
        <mxCell id="Re2_OZswaFn7zmYQNnyf-21" value="" style="html=1;rounded=0;" parent="1" vertex="1">
          <mxGeometry x="180" y="300" width="30" height="30" as="geometry" />
        </mxCell>
        <mxCell id="Re2_OZswaFn7zmYQNnyf-22" value="" style="endArrow=none;html=1;rounded=0;align=center;verticalAlign=top;endFill=0;labelBackgroundColor=none;endSize=2;" parent="1" source="Re2_OZswaFn7zmYQNnyf-21" target="Re2_OZswaFn7zmYQNnyf-23" edge="1">
          <mxGeometry relative="1" as="geometry" />
        </mxCell>
        <mxCell id="Re2_OZswaFn7zmYQNnyf-23" value="" style="shape=requiredInterface;html=1;fontSize=11;align=center;fillColor=none;points=[];aspect=fixed;resizable=0;verticalAlign=bottom;labelPosition=center;verticalLabelPosition=top;flipH=1;" parent="1" vertex="1">
          <mxGeometry x="235" y="310" width="5" height="10" as="geometry" />
        </mxCell>
        <mxCell id="Re2_OZswaFn7zmYQNnyf-24" value="" style="endArrow=none;html=1;rounded=0;align=center;verticalAlign=top;endFill=0;labelBackgroundColor=none;endSize=2;" parent="1" source="Re2_OZswaFn7zmYQNnyf-18" target="Re2_OZswaFn7zmYQNnyf-20" edge="1">
          <mxGeometry relative="1" as="geometry">
            <mxPoint x="270" y="315" as="sourcePoint" />
            <mxPoint x="240" y="315" as="targetPoint" />
          </mxGeometry>
        </mxCell>
        <mxCell id="Re2_OZswaFn7zmYQNnyf-20" value="" style="ellipse;html=1;fontSize=11;align=center;fillColor=none;points=[];aspect=fixed;resizable=0;verticalAlign=bottom;labelPosition=center;verticalLabelPosition=top;flipH=1;" parent="1" vertex="1">
          <mxGeometry x="240" y="311" width="8" height="8" as="geometry" />
        </mxCell>
        <mxCell id="Re2_OZswaFn7zmYQNnyf-33" value="" style="shape=providedRequiredInterface;html=1;verticalLabelPosition=bottom;sketch=0;rotation=90;" parent="1" vertex="1">
          <mxGeometry x="405" y="240" width="20" height="20" as="geometry" />
        </mxCell>
        <mxCell id="Re2_OZswaFn7zmYQNnyf-34" value="" style="shape=providedRequiredInterface;html=1;verticalLabelPosition=bottom;sketch=0;rotation=270;" parent="1" vertex="1">
          <mxGeometry x="400" y="380" width="20" height="20" as="geometry" />
        </mxCell>
        <mxCell id="Re2_OZswaFn7zmYQNnyf-41" value="" style="endArrow=none;html=1;rounded=0;" parent="1" edge="1">
          <mxGeometry width="50" height="50" relative="1" as="geometry">
            <mxPoint x="414" y="260" as="sourcePoint" />
            <mxPoint x="414" y="270" as="targetPoint" />
          </mxGeometry>
        </mxCell>
        <mxCell id="Re2_OZswaFn7zmYQNnyf-42" value="" style="endArrow=none;html=1;rounded=0;" parent="1" edge="1">
          <mxGeometry width="50" height="50" relative="1" as="geometry">
            <mxPoint x="409.75" y="360" as="sourcePoint" />
            <mxPoint x="409.75" y="380" as="targetPoint" />
          </mxGeometry>
        </mxCell>
        <mxCell id="Re2_OZswaFn7zmYQNnyf-43" value="" style="endArrow=none;html=1;rounded=0;" parent="1" edge="1">
          <mxGeometry width="50" height="50" relative="1" as="geometry">
            <mxPoint x="414.5" y="220" as="sourcePoint" />
            <mxPoint x="414.5" y="240" as="targetPoint" />
          </mxGeometry>
        </mxCell>
        <mxCell id="Re2_OZswaFn7zmYQNnyf-44" value="" style="endArrow=none;html=1;rounded=0;" parent="1" edge="1">
          <mxGeometry width="50" height="50" relative="1" as="geometry">
            <mxPoint x="409.75" y="400" as="sourcePoint" />
            <mxPoint x="409.75" y="410" as="targetPoint" />
          </mxGeometry>
        </mxCell>
        <mxCell id="Re2_OZswaFn7zmYQNnyf-47" value="Controller" style="text;html=1;align=center;verticalAlign=middle;resizable=0;points=[];autosize=1;strokeColor=none;fillColor=none;" parent="1" vertex="1">
          <mxGeometry x="200" y="278" width="80" height="30" as="geometry" />
        </mxCell>
        <mxCell id="Re2_OZswaFn7zmYQNnyf-48" value="" style="endArrow=none;html=1;rounded=0;" parent="1" edge="1">
          <mxGeometry width="50" height="50" relative="1" as="geometry">
            <mxPoint x="300" y="315" as="sourcePoint" />
            <mxPoint x="320" y="315" as="targetPoint" />
          </mxGeometry>
        </mxCell>
        <mxCell id="Re2_OZswaFn7zmYQNnyf-50" value="Authentication/Authorization" style="text;html=1;align=center;verticalAlign=middle;resizable=0;points=[];autosize=1;strokeColor=none;fillColor=none;" parent="1" vertex="1">
          <mxGeometry x="427" y="230" width="170" height="30" as="geometry" />
        </mxCell>
        <mxCell id="Re2_OZswaFn7zmYQNnyf-51" value="Manage Cart" style="text;html=1;align=center;verticalAlign=middle;resizable=0;points=[];autosize=1;strokeColor=none;fillColor=none;" parent="1" vertex="1">
          <mxGeometry x="420" y="370" width="90" height="30" as="geometry" />
        </mxCell>
        <mxCell id="qEzFcLcLzQjyzZBPgVjP-5" value="" style="shape=providedRequiredInterface;html=1;verticalLabelPosition=bottom;sketch=0;rotation=-180;" vertex="1" parent="1">
          <mxGeometry x="526" y="304" width="20" height="20" as="geometry" />
        </mxCell>
        <mxCell id="qEzFcLcLzQjyzZBPgVjP-6" value="«Componenet»&lt;br&gt;&lt;b&gt;Make Purchase&lt;/b&gt;" style="html=1;dropTarget=0;whiteSpace=wrap;" vertex="1" parent="1">
          <mxGeometry x="580" y="270" width="180" height="90" as="geometry" />
        </mxCell>
        <mxCell id="qEzFcLcLzQjyzZBPgVjP-7" value="" style="shape=module;jettyWidth=8;jettyHeight=4;" vertex="1" parent="qEzFcLcLzQjyzZBPgVjP-6">
          <mxGeometry x="1" width="20" height="20" relative="1" as="geometry">
            <mxPoint x="-27" y="7" as="offset" />
          </mxGeometry>
        </mxCell>
        <mxCell id="qEzFcLcLzQjyzZBPgVjP-9" value="" style="endArrow=none;html=1;rounded=0;" edge="1" parent="1">
          <mxGeometry width="50" height="50" relative="1" as="geometry">
            <mxPoint x="501" y="315" as="sourcePoint" />
            <mxPoint x="525" y="315" as="targetPoint" />
          </mxGeometry>
        </mxCell>
        <mxCell id="qEzFcLcLzQjyzZBPgVjP-11" value="" style="html=1;rounded=0;" vertex="1" parent="1">
          <mxGeometry x="790" y="299" width="30" height="30" as="geometry" />
        </mxCell>
        <mxCell id="qEzFcLcLzQjyzZBPgVjP-12" value="" style="endArrow=none;html=1;rounded=0;align=center;verticalAlign=top;endFill=0;labelBackgroundColor=none;endSize=2;" edge="1" source="qEzFcLcLzQjyzZBPgVjP-11" parent="1">
          <mxGeometry relative="1" as="geometry">
            <mxPoint x="845" y="314" as="targetPoint" />
          </mxGeometry>
        </mxCell>
        <mxCell id="qEzFcLcLzQjyzZBPgVjP-14" value="«Componenet»&lt;br&gt;&lt;b&gt;Payment Service&lt;/b&gt;" style="html=1;dropTarget=0;whiteSpace=wrap;" vertex="1" parent="1">
          <mxGeometry x="892" y="270" width="180" height="90" as="geometry" />
        </mxCell>
        <mxCell id="qEzFcLcLzQjyzZBPgVjP-15" value="" style="shape=module;jettyWidth=8;jettyHeight=4;" vertex="1" parent="qEzFcLcLzQjyzZBPgVjP-14">
          <mxGeometry x="1" width="20" height="20" relative="1" as="geometry">
            <mxPoint x="-27" y="7" as="offset" />
          </mxGeometry>
        </mxCell>
        <mxCell id="qEzFcLcLzQjyzZBPgVjP-17" value="" style="endArrow=none;html=1;rounded=0;" edge="1" parent="1">
          <mxGeometry width="50" height="50" relative="1" as="geometry">
            <mxPoint x="761" y="313" as="sourcePoint" />
            <mxPoint x="789" y="313" as="targetPoint" />
          </mxGeometry>
        </mxCell>
        <mxCell id="qEzFcLcLzQjyzZBPgVjP-18" value="" style="endArrow=none;html=1;rounded=0;" edge="1" parent="1">
          <mxGeometry width="50" height="50" relative="1" as="geometry">
            <mxPoint x="546" y="315" as="sourcePoint" />
            <mxPoint x="579" y="315" as="targetPoint" />
          </mxGeometry>
        </mxCell>
        <mxCell id="qEzFcLcLzQjyzZBPgVjP-19" value="" style="shape=providedRequiredInterface;html=1;verticalLabelPosition=bottom;sketch=0;rotation=-180;" vertex="1" parent="1">
          <mxGeometry x="845" y="304" width="20" height="20" as="geometry" />
        </mxCell>
        <mxCell id="qEzFcLcLzQjyzZBPgVjP-20" value="" style="endArrow=none;html=1;rounded=0;align=center;verticalAlign=top;endFill=0;labelBackgroundColor=none;endSize=2;" edge="1" parent="1">
          <mxGeometry relative="1" as="geometry">
            <mxPoint x="866" y="314" as="sourcePoint" />
            <mxPoint x="891" y="314" as="targetPoint" />
          </mxGeometry>
        </mxCell>
        <mxCell id="qEzFcLcLzQjyzZBPgVjP-21" value="Payment Service" style="text;html=1;align=center;verticalAlign=middle;resizable=0;points=[];autosize=1;strokeColor=none;fillColor=none;" vertex="1" parent="1">
          <mxGeometry x="789" y="248" width="110" height="30" as="geometry" />
        </mxCell>
      </root>
    </mxGraphModel>
  </diagram>
</mxfile>
